REM DIRINDEX 1\2\4,1\2\5,1\2\6,1\3\7,1\3\8,1\3\9,1\3\10
REM DIRNAME folder01,folder02,folder03,folder04,folder05,folder06,folder07,folder08,folder09,folder10
TITLE ""
FILE "a_45.mp3" MP3
  TRACK 01 AUDIO
    TITLE "0:"
    INDEX 01 00:00:00
  TRACK 02 AUDIO
    TITLE "6:cjc058_1108"
    INDEX 01 00:00:09
  TRACK 03 AUDIO
    TITLE "0:"
    INDEX 01 00:02:61
  TRACK 04 AUDIO
    TITLE "4:cjc058_1109"
    INDEX 01 00:03:27
  TRACK 05 AUDIO
    TITLE "0:"
    INDEX 01 00:05:14
  TRACK 06 AUDIO
    TITLE "5:cjc058_1110"
    INDEX 01 00:05:46
  TRACK 07 AUDIO
    TITLE "0:"
    INDEX 01 00:09:20
  TRACK 08 AUDIO
    TITLE "4:cjc058_1111"
    INDEX 01 00:10:23
  TRACK 09 AUDIO
    TITLE "0:"
    INDEX 01 00:11:50
  TRACK 10 AUDIO
    TITLE "5:cjc058_1112"
    INDEX 01 00:12:03
  TRACK 11 AUDIO
    TITLE "0:"
    INDEX 01 00:14:58
  TRACK 12 AUDIO
    TITLE "4:cjc058_1113"
    INDEX 01 00:15:60
  TRACK 13 AUDIO
    TITLE "0:"
    INDEX 01 00:17:55
  TRACK 14 AUDIO
    TITLE "5:cjc058_1114"
    INDEX 01 00:18:13
  TRACK 15 AUDIO
    TITLE "0:"
    INDEX 01 00:21:33
  TRACK 16 AUDIO
    TITLE "4:cjc058_1115"
    INDEX 01 00:22:34
  TRACK 17 AUDIO
    TITLE "0:"
    INDEX 01 00:24:22
  TRACK 18 AUDIO
    TITLE "5:cjc058_1116"
    INDEX 01 00:24:53
  TRACK 19 AUDIO
    TITLE "0:"
    INDEX 01 00:28:00
  TRACK 20 AUDIO
    TITLE "4:cjc058_1117"
    INDEX 01 00:29:03
  TRACK 21 AUDIO
    TITLE "0:"
    INDEX 01 00:30:57
  TRACK 22 AUDIO
    TITLE "5:cjc058_1118"
    INDEX 01 00:31:10
  TRACK 23 AUDIO
    TITLE "0:"
    INDEX 01 00:33:36
  TRACK 24 AUDIO
    TITLE "4:cjc058_1119"
    INDEX 01 00:34:40
  TRACK 25 AUDIO
    TITLE "0:"
    INDEX 01 00:35:64
  TRACK 26 AUDIO
    TITLE "5:cjc058_1120"
    INDEX 01 00:36:21
  TRACK 27 AUDIO
    TITLE "0:"
    INDEX 01 00:38:61
  TRACK 28 AUDIO
    TITLE "4:cjc058_1121"
    INDEX 01 00:39:62
  TRACK 29 AUDIO
    TITLE "0:"
    INDEX 01 00:41:51
  TRACK 30 AUDIO
    TITLE "5:cjc058_1122"
    INDEX 01 00:42:08
  TRACK 31 AUDIO
    TITLE "0:"
    INDEX 01 00:45:67
  TRACK 32 AUDIO
    TITLE "4:cjc058_1123"
    INDEX 01 00:46:68
  TRACK 33 AUDIO
    TITLE "0:"
    INDEX 01 00:48:46
  TRACK 34 AUDIO
    TITLE "5:cjc058_1124"
    INDEX 01 00:49:02
  TRACK 35 AUDIO
    TITLE "0:"
    INDEX 01 00:52:12
  TRACK 36 AUDIO
    TITLE "4:cjc058_1125"
    INDEX 01 00:53:19
  TRACK 37 AUDIO
    TITLE "0:"
    INDEX 01 00:54:64
  TRACK 38 AUDIO
    TITLE "5:cjc058_1126"
    INDEX 01 00:55:20
  TRACK 39 AUDIO
    TITLE "0:"
    INDEX 01 00:57:50
  TRACK 40 AUDIO
    TITLE "4:cjc058_1127"
    INDEX 01 00:58:58
  TRACK 41 AUDIO
    TITLE "0:"
    INDEX 01 00:59:67
  TRACK 42 AUDIO
    TITLE "5:cjc058_1128"
    INDEX 01 01:00:23
  TRACK 43 AUDIO
    TITLE "0:"
    INDEX 01 01:03:16
  TRACK 44 AUDIO
    TITLE "4:cjc058_1129"
    INDEX 01 01:04:15
  TRACK 45 AUDIO
    TITLE "0:"
    INDEX 01 01:05:30
  TRACK 46 AUDIO
    TITLE "5:cjc058_1130"
    INDEX 01 01:05:60
  TRACK 47 AUDIO
    TITLE "0:"
    INDEX 01 01:08:01
  TRACK 48 AUDIO
    TITLE "4:cjc058_1131"
    INDEX 01 01:09:01
  TRACK 49 AUDIO
    TITLE "0:"
    INDEX 01 01:10:22
  TRACK 50 AUDIO
    TITLE "5:cjc058_1132"
    INDEX 01 01:10:53
  TRACK 51 AUDIO
    TITLE "0:"
    INDEX 01 01:14:04
  TRACK 52 AUDIO
    TITLE "4:cjc058_1133"
    INDEX 01 01:15:09
  TRACK 53 AUDIO
    TITLE "0:"
    INDEX 01 01:16:34
  TRACK 54 AUDIO
    TITLE "5:cjc058_1134"
    INDEX 01 01:16:67
  TRACK 55 AUDIO
    TITLE "0:"
    INDEX 01 01:22:11
  TRACK 56 AUDIO
    TITLE "4:cjc058_1135"
    INDEX 01 01:23:15
  TRACK 57 AUDIO
    TITLE "0:"
    INDEX 01 01:24:37
  TRACK 58 AUDIO
    TITLE "5:cjc058_1136"
    INDEX 01 01:24:69
  TRACK 59 AUDIO
    TITLE "0:"
    INDEX 01 01:27:57
  TRACK 60 AUDIO
    TITLE "4:cjc058_1137"
    INDEX 01 01:28:59
  TRACK 61 AUDIO
    TITLE "0:"
    INDEX 01 01:30:01
  TRACK 62 AUDIO
    TITLE "5:cjc058_1138"
    INDEX 01 01:30:34
  TRACK 63 AUDIO
    TITLE "0:"
    INDEX 01 01:33:40
  TRACK 64 AUDIO
    TITLE "4:cjc058_1139"
    INDEX 01 01:34:44
  TRACK 65 AUDIO
    TITLE "0:"
    INDEX 01 01:35:61
  TRACK 66 AUDIO
    TITLE "5:cjc058_1140"
    INDEX 01 01:36:17
  TRACK 67 AUDIO
    TITLE "0:"
    INDEX 01 01:40:15
  TRACK 68 AUDIO
    TITLE "4:cjc058_1141"
    INDEX 01 01:41:22
  TRACK 69 AUDIO
    TITLE "0:"
    INDEX 01 01:42:73
  TRACK 70 AUDIO
    TITLE "5:cjc058_1142"
    INDEX 01 01:43:25
  TRACK 71 AUDIO
    TITLE "0:"
    INDEX 01 01:47:52
  TRACK 72 AUDIO
    TITLE "4:cjc058_1143"
    INDEX 01 01:48:60
  TRACK 73 AUDIO
    TITLE "0:"
    INDEX 01 01:50:27
  TRACK 74 AUDIO
    TITLE "5:cjc058_1144"
    INDEX 01 01:50:60
  TRACK 75 AUDIO
    TITLE "0:"
    INDEX 01 01:51:72
  TRACK 76 AUDIO
    TITLE "4:cjc058_1145"
    INDEX 01 01:53:02
  TRACK 77 AUDIO
    TITLE "0:"
    INDEX 01 01:54:15
  TRACK 78 AUDIO
    TITLE "5:cjc058_1146"
    INDEX 01 01:54:46
  TRACK 79 AUDIO
    TITLE "0:"
    INDEX 01 01:57:51
  TRACK 80 AUDIO
    TITLE "4:cjc058_1147"
    INDEX 01 01:58:54
  TRACK 81 AUDIO
    TITLE "0:"
    INDEX 01 01:59:65
  TRACK 82 AUDIO
    TITLE "5:cjc058_1148"
    INDEX 01 02:00:22
  TRACK 83 AUDIO
    TITLE "0:"
    INDEX 01 02:04:25
  TRACK 84 AUDIO
    TITLE "4:cjc058_1149"
    INDEX 01 02:05:27
  TRACK 85 AUDIO
    TITLE "0:"
    INDEX 01 02:06:63
  TRACK 86 AUDIO
    TITLE "5:cjc058_1150"
    INDEX 01 02:07:20
  TRACK 87 AUDIO
    TITLE "0:"
    INDEX 01 02:09:48
  TRACK 88 AUDIO
    TITLE "4:cjc058_1151"
    INDEX 01 02:10:53
  TRACK 89 AUDIO
    TITLE "0:"
    INDEX 01 02:12:19
  TRACK 90 AUDIO
    TITLE "5:cjc058_1152"
    INDEX 01 02:12:50
  TRACK 91 AUDIO
    TITLE "0:"
    INDEX 01 02:14:63
  TRACK 92 AUDIO
    TITLE "4:cjc058_1153"
    INDEX 01 02:15:68
  TRACK 93 AUDIO
    TITLE "0:"
    INDEX 01 02:17:40
  TRACK 94 AUDIO
    TITLE "5:cjc058_1154"
    INDEX 01 02:17:71
  TRACK 95 AUDIO
    TITLE "0:"
    INDEX 01 02:19:37
  TRACK 96 AUDIO
    TITLE "4:cjc058_1155"
    INDEX 01 02:20:38
  TRACK 97 AUDIO
    TITLE "0:"
    INDEX 01 02:22:17
  TRACK 98 AUDIO
    TITLE "5:cjc058_1156"
    INDEX 01 02:22:49
  TRACK 99 AUDIO
    TITLE "0:"
    INDEX 01 02:24:04
  TRACK 100 AUDIO
    TITLE "4:cjc058_1157"
    INDEX 01 02:25:08
  TRACK 101 AUDIO
    TITLE "0:"
    INDEX 01 02:26:21
  TRACK 102 AUDIO
    TITLE "5:cjc058_1158"
    INDEX 01 02:26:54
  TRACK 103 AUDIO
    TITLE "0:"
    INDEX 01 02:30:07
  TRACK 104 AUDIO
    TITLE "4:cjc058_1159"
    INDEX 01 02:31:10
  TRACK 105 AUDIO
    TITLE "0:"
    INDEX 01 02:32:55
  TRACK 106 AUDIO
    TITLE "5:cjc058_1160"
    INDEX 01 02:33:11
  TRACK 107 AUDIO
    TITLE "0:"
    INDEX 01 02:36:33
  TRACK 108 AUDIO
    TITLE "4:cjc058_1161"
    INDEX 01 02:37:40
  TRACK 109 AUDIO
    TITLE "0:"
    INDEX 01 02:39:10
  TRACK 110 AUDIO
    TITLE "5:cjc058_1162"
    INDEX 01 02:39:43
  TRACK 111 AUDIO
    TITLE "0:"
    INDEX 01 02:43:19
  TRACK 112 AUDIO
    TITLE "4:cjc058_1163"
    INDEX 01 02:44:23
  TRACK 113 AUDIO
    TITLE "0:"
    INDEX 01 02:45:54
  TRACK 114 AUDIO
    TITLE "5:cjc058_1164"
    INDEX 01 02:46:10
  TRACK 115 AUDIO
    TITLE "0:"
    INDEX 01 02:49:06
  TRACK 116 AUDIO
    TITLE "4:cjc058_1165"
    INDEX 01 02:50:08
  TRACK 117 AUDIO
    TITLE "0:"
    INDEX 01 02:52:01
  TRACK 118 AUDIO
    TITLE "5:cjc058_1166"
    INDEX 01 02:52:32
  TRACK 119 AUDIO
    TITLE "0:"
    INDEX 01 02:54:51
